<svg xmlns="http://www.w3.org/2000/svg" width="43.1" height="47" viewBox="0 0 43.1 47"><defs><style>.a{fill:#fff;}</style></defs><g transform="translate(0.1)"><path class="a" d="M41.5,16.2a5.269,5.269,0,0,1-9.2,0h-.1a1.43,1.43,0,0,0-1.4,1.4v7.8a9.351,9.351,0,1,1-18.7,0V17.6a1.367,1.367,0,0,0-1.4-1.4h-.2a5.269,5.269,0,0,1-9.2,0A1.506,1.506,0,0,0-.1,17.6V26A21.278,21.278,0,0,0,21.3,47C33.3,47,43,37.5,43,26V17.6a1.524,1.524,0,0,0-1.5-1.4"/><path class="a" d="M42.2,5.2a5.2,5.2,0,0,1-10.4,0A5.1,5.1,0,0,1,37,0a5.164,5.164,0,0,1,5.2,5.2"/><path class="a" d="M11.2,5.2A5.164,5.164,0,0,1,6,10.4,5.164,5.164,0,0,1,.8,5.2,5.1,5.1,0,0,1,6,0a5.164,5.164,0,0,1,5.2,5.2"/></g></svg>