<svg id="Layer_1" data-name="Layer 1" xmlns="http://www.w3.org/2000/svg" viewBox="0 0 595.28 841.89"><defs><style>.cls-1{fill:none;}.cls-2,.cls-3{fill:#494949;}.cls-3{font-size:57.6px;font-family:Axiforma-Bold, Axiforma;font-weight:700;}</style></defs><title>Uplanit Horizontal Grayscale</title><rect class="cls-1" x="131.02" y="254.33" width="333.23" height="333.23"/><path class="cls-2" d="M213.19,410.78a6.77,6.77,0,0,1-6.39,3.44,7.66,7.66,0,0,1-6.69-3.93h-.21a2.1,2.1,0,0,0-2.1,2.1v11.38A13.63,13.63,0,0,1,184,437.68c-7.84,0-13.58-6.19-13.58-13.92V412.38a2.1,2.1,0,0,0-2.1-2.1h-.24a7.66,7.66,0,0,1-13.39,0,2.17,2.17,0,0,0-2.06,2.1v12.26c0,16.79,14,30.7,31.37,30.7s31.59-13.92,31.59-30.7V412.38a2.17,2.17,0,0,0-2.08-2.1Z"/><path class="cls-2" d="M214.46,394.2a7.66,7.66,0,1,1-7.66-7.66,7.66,7.66,0,0,1,7.66,7.66"/><path class="cls-2" d="M169,394.2a7.66,7.66,0,1,1-7.66-7.66A7.66,7.66,0,0,1,169,394.2"/><text class="cls-3" transform="translate(234.62 435.91)">uplanit</text></svg>